<?xml version="1.0" encoding="UTF-8" standalone="no"?>
<!-- Created with Inkscape (http://www.inkscape.org/) -->

<svg
   xmlns:dc="http://purl.org/dc/elements/1.1/"
   xmlns:cc="http://creativecommons.org/ns#"
   xmlns:rdf="http://www.w3.org/1999/02/22-rdf-syntax-ns#"
   xmlns:svg="http://www.w3.org/2000/svg"
   xmlns="http://www.w3.org/2000/svg"
   xmlns:sodipodi="http://sodipodi.sourceforge.net/DTD/sodipodi-0.dtd"
   xmlns:inkscape="http://www.inkscape.org/namespaces/inkscape"
   width="210mm"
   height="297mm"
   viewBox="0 0 210 297"
   version="1.1"
   id="svg30"
   inkscape:version="0.92.4 (5da689c313, 2019-01-14)"
   sodipodi:docname="szgd 2.svg">
  <defs
     id="defs24" />
  <sodipodi:namedview
     id="base"
     pagecolor="#ffffff"
     bordercolor="#666666"
     borderopacity="1.0"
     inkscape:pageopacity="0.0"
     inkscape:pageshadow="2"
     inkscape:zoom="0.28284271"
     inkscape:cx="997.40189"
     inkscape:cy="-30.089789"
     inkscape:document-units="mm"
     inkscape:current-layer="layer1"
     showgrid="true"
     inkscape:snap-grids="true"
     inkscape:window-width="1366"
     inkscape:window-height="716"
     inkscape:window-x="-8"
     inkscape:window-y="-8"
     inkscape:window-maximized="1">
    <inkscape:grid
       type="xygrid"
       id="grid32"
       spacingx="2.6458333"
       spacingy="2.6458333"
       empspacing="10" />
  </sodipodi:namedview>
  <metadata
     id="metadata27">
    <rdf:RDF>
      <cc:Work
         rdf:about="">
        <dc:format>image/svg+xml</dc:format>
        <dc:type
           rdf:resource="http://purl.org/dc/dcmitype/StillImage" />
        <dc:title></dc:title>
      </cc:Work>
    </rdf:RDF>
  </metadata>
  <g
     inkscape:label="Layer 1"
     inkscape:groupmode="layer"
     id="layer1">
    <rect
       style="fill:#ffffff;fill-opacity:1;stroke:#000000;stroke-width:11.90625;stroke-linecap:round;stroke-miterlimit:4;stroke-dasharray:none;stroke-dashoffset:0;stroke-opacity:1;paint-order:normal"
       id="rect919"
       width="238.125"
       height="291.04166"
       x="264.58334"
       y="5.9583368" />
    <path
       style="fill:none;fill-opacity:1;stroke:#000000;stroke-width:11.90625;stroke-linecap:round;stroke-miterlimit:4;stroke-dasharray:none;stroke-dashoffset:0;stroke-opacity:1;paint-order:normal"
       d="m 476.24999,32.41667 -59.53125,-2e-6 c -10.9594,0 -19.84375,8.884349 -19.84375,19.84375 0,10.959401 8.88435,19.84375 19.84375,19.84375 l 39.6875,-4e-6 c 10.9594,0 19.84375,8.884349 19.84375,19.84375 0,10.959396 -8.88435,19.843746 -19.84375,19.843746 l -59.53124,1e-5"
       id="path39"
       inkscape:connector-curvature="0"
       sodipodi:nodetypes="ccsccsc" />
    <path
       style="fill:none;fill-opacity:1;stroke:#000000;stroke-width:11.90625;stroke-linecap:round;stroke-miterlimit:4;stroke-dasharray:none;stroke-dashoffset:0;stroke-opacity:1;paint-order:normal"
       d="m 370.41666,111.79167 h -59.53124 c -10.9594,0 -19.84375,-8.88435 -19.84375,-19.84375 0,-10.959401 8.88435,-19.84375 19.84375,-19.84375 l 39.68749,3e-6 c 10.9594,0 19.84375,-8.884349 19.84375,-19.84375 0,-10.959396 -8.88435,-19.843746 -19.84375,-19.843746 l -59.53124,-1e-5"
       id="path39-0"
       inkscape:connector-curvature="0"
       sodipodi:nodetypes="ccsccsc" />
    <path
       style="fill:none;fill-opacity:1;stroke:#000000;stroke-width:11.90625;stroke-linecap:round;stroke-miterlimit:4;stroke-dasharray:none;stroke-dashoffset:0;stroke-opacity:1;paint-order:normal"
       d="M 396.875,217.625 V 138.25 h 39.68749 c 21.9188,0 39.6875,17.7687 39.6875,39.6875 0,21.9188 -17.7687,39.6875 -39.6875,39.6875 z"
       id="path62"
       inkscape:connector-curvature="0"
       sodipodi:nodetypes="cccscc" />
    <path
       style="fill:none;fill-opacity:1;stroke:#000000;stroke-width:11.90625;stroke-linecap:round;stroke-miterlimit:4;stroke-dasharray:none;stroke-dashoffset:0;stroke-opacity:1;paint-order:normal"
       d="m 370.41666,138.25 -39.6875,-4e-5 c -21.9188,0 -39.6875,17.7687 -39.6875,39.6875 0,21.9188 17.7687,39.6875 39.6875,39.6875 l 39.6875,4e-5 v -39.68754 l -26.45833,4e-5"
       id="path67"
       inkscape:connector-curvature="0"
       sodipodi:nodetypes="csscccc" />
    <path
       style="fill:none;fill-opacity:1;stroke:#000000;stroke-width:5.29166667;stroke-linecap:round;stroke-miterlimit:4;stroke-dasharray:none;stroke-dashoffset:0;stroke-opacity:1;paint-order:normal"
       d="m 317.5,244.08333 -19.84375,1e-5 c -3.65313,0 -6.61458,2.96145 -6.61459,6.61458 1e-5,3.65313 2.96146,6.61458 6.61459,6.61458 l 13.22916,10e-6 c 3.65313,0 6.61458,2.96145 6.61458,6.61458 10e-6,3.65314 -2.96144,6.61459 -6.61458,6.61458 h -19.84375"
       id="path75"
       inkscape:connector-curvature="0"
       sodipodi:nodetypes="ccsccscc" />
    <path
       style="fill:none;fill-opacity:1;stroke:#000000;stroke-width:5.29166667;stroke-linecap:round;stroke-miterlimit:4;stroke-dasharray:none;stroke-dashoffset:0;stroke-opacity:1;paint-order:normal"
       d="M 322.79166,244.08333 H 349.25"
       id="path92"
       inkscape:connector-curvature="0" />
    <path
       style="fill:none;fill-opacity:1;stroke:#000000;stroke-width:5.29166667;stroke-linecap:round;stroke-miterlimit:4;stroke-dasharray:none;stroke-dashoffset:0;stroke-opacity:1;paint-order:normal"
       d="m 336.02083,244.08333 v 26.45834"
       id="path94"
       inkscape:connector-curvature="0" />
    <path
       style="fill:none;fill-opacity:1;stroke:#000000;stroke-width:5.29166667;stroke-linecap:round;stroke-miterlimit:4;stroke-dasharray:none;stroke-dashoffset:0;stroke-opacity:1;paint-order:normal"
       d="m 354.54166,244.08333 v 13.22913 c 1e-5,7.30627 5.9229,13.22915 13.22917,13.22915 7.30626,0 13.22916,-5.92288 13.22917,-13.22915 v -13.22913"
       id="path96"
       inkscape:connector-curvature="0"
       sodipodi:nodetypes="csc" />
    <path
       style="fill:none;fill-opacity:1;stroke:#000000;stroke-width:5.29166667;stroke-linecap:round;stroke-miterlimit:4;stroke-dasharray:none;stroke-dashoffset:0;stroke-opacity:1;paint-order:normal"
       d="m 402.16666,270.54161 c 7.30627,0 13.22916,-5.92288 13.22917,-13.22915 0,-7.30627 -5.9229,-13.22917 -13.22917,-13.22917 l -13.22916,4e-5 v 26.45834 z"
       id="path101"
       inkscape:connector-curvature="0"
       sodipodi:nodetypes="csc" />
    <path
       style="fill:none;fill-opacity:1;stroke:#000000;stroke-width:5.29166667;stroke-linecap:round;stroke-miterlimit:4;stroke-dasharray:none;stroke-dashoffset:0;stroke-opacity:1;paint-order:normal"
       d="m 418.04166,244.08333 h 26.45833"
       id="path106"
       inkscape:connector-curvature="0" />
    <path
       style="fill:none;fill-opacity:1;stroke:#000000;stroke-width:5.29166667;stroke-linecap:round;stroke-miterlimit:4;stroke-dasharray:none;stroke-dashoffset:0;stroke-opacity:1;paint-order:normal"
       d="m 431.27082,244.08333 v 26.45834"
       id="path108"
       inkscape:connector-curvature="0" />
    <path
       style="fill:none;fill-opacity:1;stroke:#000000;stroke-width:5.29166667;stroke-linecap:round;stroke-miterlimit:4;stroke-dasharray:none;stroke-dashoffset:0;stroke-opacity:1;paint-order:normal"
       d="m 418.04166,270.54167 h 26.45833"
       id="path110"
       inkscape:connector-curvature="0" />
    <circle
       style="fill:none;fill-opacity:1;stroke:#000000;stroke-width:5.29166667;stroke-linecap:round;stroke-miterlimit:4;stroke-dasharray:none;stroke-dashoffset:0;stroke-opacity:1;paint-order:normal"
       id="path112"
       cx="463.02081"
       cy="257.3125"
       r="13.229166" />
  </g>
</svg>
