<?xml version="1.0" encoding="UTF-8" standalone="no"?>
<!-- Created with Inkscape (http://www.inkscape.org/) -->

<svg
   xmlns:dc="http://purl.org/dc/elements/1.1/"
   xmlns:cc="http://creativecommons.org/ns#"
   xmlns:rdf="http://www.w3.org/1999/02/22-rdf-syntax-ns#"
   xmlns:svg="http://www.w3.org/2000/svg"
   xmlns="http://www.w3.org/2000/svg"
   xmlns:sodipodi="http://sodipodi.sourceforge.net/DTD/sodipodi-0.dtd"
   xmlns:inkscape="http://www.inkscape.org/namespaces/inkscape"
   width="210mm"
   height="297mm"
   viewBox="0 0 210 297"
   version="1.1"
   id="svg8"
   inkscape:version="0.92.4 (5da689c313, 2019-01-14)"
   sodipodi:docname="logo.svg"
   inkscape:export-filename="C:\Users\MotLA\Desktop\Table Top\Fairydust-RPG\src\logo.svg.png"
   inkscape:export-xdpi="350"
   inkscape:export-ydpi="350">
  <defs
     id="defs2" />
  <sodipodi:namedview
     id="base"
     pagecolor="#ffffff"
     bordercolor="#666666"
     borderopacity="1.0"
     inkscape:pageopacity="0.0"
     inkscape:pageshadow="2"
     inkscape:zoom="0.68664551"
     inkscape:cx="609.06478"
     inkscape:cy="136.6159"
     inkscape:document-units="mm"
     inkscape:current-layer="layer1"
     showgrid="true"
     inkscape:window-width="1366"
     inkscape:window-height="716"
     inkscape:window-x="-8"
     inkscape:window-y="-8"
     inkscape:window-maximized="1"
     inkscape:snap-grids="true"
     showborder="false"
     inkscape:pagecheckerboard="false"
     inkscape:showpageshadow="true"
     borderlayer="false">
    <inkscape:grid
       type="xygrid"
       id="grid815"
       units="mm"
       spacingx="5"
       spacingy="5"
       snapvisiblegridlinesonly="true"
       empspacing="2"
       visible="true"
       enabled="true" />
  </sodipodi:namedview>
  <metadata
     id="metadata5">
    <rdf:RDF>
      <cc:Work
         rdf:about="">
        <dc:format>image/svg+xml</dc:format>
        <dc:type
           rdf:resource="http://purl.org/dc/dcmitype/StillImage" />
        <dc:title />
      </cc:Work>
    </rdf:RDF>
  </metadata>
  <g
     inkscape:label="Layer 1"
     inkscape:groupmode="layer"
     id="layer1">
    <rect
       style="fill:#ffffff;fill-opacity:1;stroke:#ffffff;stroke-width:0.26458332;stroke-miterlimit:4;stroke-dasharray:none;stroke-dashoffset:0;stroke-opacity:1;paint-order:normal"
       id="rect19"
       width="380"
       height="80"
       x="-10"
       y="227" />
    <path
       style="fill:#000000;fill-opacity:1;stroke:#ffffff;stroke-width:0.26458332;stroke-miterlimit:4;stroke-dasharray:none;stroke-dashoffset:0;stroke-opacity:1;paint-order:normal"
       d="m 5e-5,236.99985 v 9.9999 50.00005 h 9.9999 v -19.99981 h 19.99982 v -9.99991 H 9.99995 v -20.00033 h 19.99982 a 10,10 0 0 0 9.9999,-9.9999 z"
       id="rect399-1-5-2-6"
       inkscape:connector-curvature="0" />
    <path
       style="fill:#000000;fill-opacity:1;stroke:#ffffff;stroke-width:0.26458332;stroke-miterlimit:4;stroke-dasharray:none;stroke-dashoffset:0;stroke-opacity:1;paint-order:normal"
       d="M 64.99982,236.99985 A 30.000001,30.000001 0 0 0 35.0001,267.00008 v 4.9997 A 10,10 0 0 0 45,261.99987 a 10,10 0 0 0 0.23616,2.1022 19.999999,19.999999 0 0 1 19.76366,-17.10232 v 20.00033 H 46.35444 a 10,10 0 0 0 8.64547,4.9997 10,10 0 0 0 -8.6496,5.00021 h 18.64951 v 19.99981 h 10.00042 v -19.99981 -9.99991 -30.00023 z M 35.0001,271.99978 v 5.00021 19.99981 H 45 v -15.00011 a 10,10 0 0 0 -9.9999,-9.99991 z"
       id="path742-7-2-4-2-1"
       inkscape:connector-curvature="0" />
    <path
       inkscape:connector-curvature="0"
       style="fill:#000000;fill-opacity:1;stroke:#ffffff;stroke-width:0.26458332;stroke-miterlimit:4;stroke-dasharray:none;stroke-dashoffset:0;stroke-opacity:1;paint-order:normal"
       d="m 229.99977,237.00005 v 1.3503 13.64982 25.00002 A 19.999998,19.999998 0 0 0 250.0001,297 19.999998,19.999998 0 0 0 269.99993,277.00019 v -20.00033 -18.64589 -1.35392 H 260 v 1.3503 18.64951 20.00033 a 10,10 0 0 1 -9.9999,9.99991 10,10 0 0 1 -10.00043,-9.99991 v -25.00002 0 -15.00012 z"
       id="path1197-7-3-1-1-2" />
    <path
       style="fill:#000000;fill-opacity:1;stroke:#ffffff;stroke-width:0.26458332;stroke-miterlimit:4;stroke-dasharray:none;stroke-dashoffset:0;stroke-opacity:1;paint-order:normal"
       d="m 294.99981,256.99981 v 0.0109 a 10,10 0 0 0 0,-0.0103 10,10 0 0 0 9.99992,9.99991 10,10 0 0 0 -4.9966,1.35185 10,10 0 0 1 4.9966,8.64805 10,10 0 0 1 -9.99992,9.99991 v 0 h -19.99978 v 9.9999 h 19.99978 v 0 a 19.999998,19.999998 0 0 0 19.99982,-19.99981 19.999998,19.999998 0 0 0 -19.99982,-20.00033 z"
       id="path1197-6-2-7-8-7-4"
       inkscape:connector-curvature="0" />
    <path
       style="fill:#000000;fill-opacity:1;stroke:#ffffff;stroke-width:0.26458332;stroke-miterlimit:4;stroke-dasharray:none;stroke-dashoffset:0;stroke-opacity:1;paint-order:normal"
       d="m 294.99981,237 a 19.999999,19.999999 0 0 0 -19.99978,19.99981 19.999999,19.999999 0 0 0 19.99978,20.00033 v -0.0145 a 10,10 0 0 0 -9.99938,-9.98544 10,10 0 0 0 4.99661,-1.35237 10,10 0 0 1 -4.99714,-8.64805 10,10 0 0 1 9.99991,-9.99991 h 20.00035 v -9.9999 z"
       id="path1197-6-8-1-9-3-9-1"
       inkscape:connector-curvature="0" />
    <path
       style="fill:#000000;fill-rule:evenodd;stroke:#ffffff;stroke-width:0.26458332px;stroke-linecap:butt;stroke-linejoin:miter;stroke-opacity:1"
       d="m 320.00005,237 v 9.9999 h 9.9999 A 10,10 0 0 0 339.99987,237 Z m 19.99982,0 a 10,10 0 0 0 9.9999,9.9999 H 360.0002 V 237 Z m -4.99969,11.35021 v 48.64974 h 9.9999 v -48.64561 a 10,10 0 0 0 -5.00021,8.64547 10,10 0 0 0 -4.99969,-8.6496 z"
       id="path1263-8-9-7-5-6"
       inkscape:connector-curvature="0" />
    <path
       inkscape:connector-curvature="0"
       style="fill:#000000;fill-opacity:1;stroke:#ffffff;stroke-width:0.26458332;stroke-miterlimit:4;stroke-dasharray:none;stroke-dashoffset:0;stroke-opacity:1;paint-order:normal"
       d="m 140.00001,237 v 20.66075 c 0.006,8.48557 5.35486,15.96503 13.21419,18.79575 a 10,10 0 0 0 6.75306,-8.79636 c -5.5079,-0.0177 -9.96757,-4.48733 -9.96734,-9.99939 V 237 Z m 29.99973,0 v 20.66075 c 2.3e-4,5.515 -4.46416,9.98696 -9.97614,9.99991 a 10,10 0 0 0 6.74532,8.79223 c 7.86528,-2.82472 13.22038,-10.3042 13.23124,-18.79214 V 237 Z m -14.99962,41.35044 v 18.64951 h 9.99992 v -18.64589 a 10,10 0 0 0 -5.00021,8.64599 10,10 0 0 0 -4.99971,-8.64961 z"
       id="path85-5-8-1-2-9" />
    <path
       style="fill:#000000;fill-rule:evenodd;stroke:#000000;stroke-width:0.26458332px;stroke-linecap:butt;stroke-linejoin:miter;stroke-opacity:1"
       d="m 94.99991,237.00009 v 34.99993 a 10,10 0 0 0 9.99991,-9.9999 V 247 h 10.00041 a 10,10 0 0 1 9.99993,9.99991 10,10 0 0 1 -9.99993,9.9999 h -8.64598 a 10,10 0 0 0 8.64548,5.00021 10,10 0 0 0 -8.64961,5.00022 h 8.65011 a 10,10 0 0 1 9.99993,9.9999 v 9.99991 h 9.99991 v -9.99991 a 19.999998,19.999998 0 0 0 -6.80269,-14.99443 19.999998,19.999998 0 0 0 6.80269,-15.0058 19.999998,19.999998 0 0 0 -19.99984,-19.99982 h -10.00041 z m 0,34.99993 v 25.00003 h 9.99991 v -15.00012 a 10,10 0 0 0 -9.99991,-9.99991 z"
       id="path204-9-2-9-8-0"
       inkscape:connector-curvature="0" />
    <path
       style="fill:#000000;fill-rule:evenodd;stroke:#ffffff;stroke-width:0.26458332px;stroke-linecap:butt;stroke-linejoin:miter;stroke-opacity:1"
       d="m 184.99994,237.00033 v 29.99972 5.3e-4 4.99917 a 10,10 0 0 0 9.9999,-9.9999 v -4.9992 -10.0004 h 10.00043 a 10,19.999998 0 0 1 9.9999,19.9998 10,19.999998 0 0 1 -9.9999,20.00033 h -10.00043 v -5.1e-4 -5.00022 a 10,10 0 0 0 -9.9999,-9.9999 v 5.0002 15.00013 5.0002 h 9.9999 10.00043 a 19.999998,30 0 0 0 19.9998,-30.00023 19.999998,30 0 0 0 -19.9998,-29.99972 h -10.00043 z"
       id="path19-5-5-8-6-2-8"
       inkscape:connector-curvature="0" />
    <path
       style="fill:#000000;fill-rule:evenodd;stroke:#000000;stroke-width:0.26458332px;stroke-linecap:butt;stroke-linejoin:miter;stroke-opacity:1"
       d="m 80.00024,237.00016 v 1.35031 L 80.00009,257 v 8.64546 c 3.08932,-1.78376 4.99447,-5.07815 4.99969,-8.64546 0.004,3.56889 1.90942,6.86523 5.00022,8.6496 V 257 l 1.5e-4,-18.64592 v -1.35392 z m -1.5e-4,31.35005 1.5e-4,28.64991 h 9.99991 L 90,268.35383 c -3.08968,1.78372 -4.99508,5.07838 -5.00022,8.64598 -0.004,-3.56879 -1.90909,-6.8651 -4.99969,-8.6496 z"
       id="path304-7-2-3-9-8"
       inkscape:connector-curvature="0"
       sodipodi:nodetypes="cccccccccccccccc" />
    <path
       inkscape:connector-curvature="0"
       style="fill:#000000;fill-opacity:1;stroke:#ffffff;stroke-width:0.26458332;stroke-miterlimit:4;stroke-dasharray:none;stroke-dashoffset:0;stroke-opacity:1;paint-order:normal"
       d="M 249.9999,267.00009 A 10,10 0 0 1 240.00001,277 10,10 0 0 1 249.9999,286.99991 10,10 0 0 1 259.99981,277 10,10 0 0 1 249.9999,267.00009 Z"
       id="rect1142-5-6-6-8" />
  </g>
</svg>
